<svg xmlns="http://www.w3.org/2000/svg" version="1.1" width="580" height="490" viewBox="0 0 580 490">
<metadata>Generated from the vector data of map.pdf. Coordinate origin is top-left of the cropped campus map.</metadata>
<style><![CDATA[
  .background{fill:#ffffff;}
  .road-area{fill:#e4e4e4;stroke:#c2c4c8;stroke-width:0.6;}
  .road-line{fill:none;stroke:#c2c4c8;stroke-width:0.8;stroke-linecap:round;stroke-linejoin:round;}
  .building{fill:#849bc4;stroke:#6f7f9a;stroke-width:0.6;}
  .label{font-family:"Hiragino Sans","Yu Gothic","Noto Sans CJK JP",sans-serif;fill:#222;dominant-baseline:auto;}
]]></style>
<rect class="background" x="0" y="0" width="100%" height="100%"/>
<g id="roads">
  <path class="road-area" d="M 191.47,423.137 L 274.921,422.238 L 280.81,428.126 L 280.81,440.233 L 288.632,440.233 L 288.632,428.277 L 294.169,422.742 L 473.457,422.742 L 480.52,428.126 L 480.52,440.233 L 487.886,440.233 L 487.886,428.126 L 494.633,422.742 L 513.318,422.742 L 513.318,407.677 L 480.113,407.734 L 404.781,409.496 L 293.97,409.199 L 288.483,402.676 L 288.079,246.669 L 288.079,239.84 L 272.255,119.552 L 271.578,113.599 L 269.954,99.669 L 252.704,56.164 L 247.022,59.615 L 263.936,103.525 L 276.311,203.531 L 279.828,251.405 L 280.81,402.676 L 274.684,409.148 L 202.203,408.954 L 105.103,393.673 L 101.18,336.737 L 99.831,318.346 L 89.686,177.564 L 76.702,177.564 L 91.714,388.934 L 87.254,391.375 L 78.061,389.762 L 74.338,403.473 L 90.022,405.905 L 92.997,413.751 L 89.73,425.785 L 99.067,426.414 L 103.615,414.414 L 107.807,408.676 Z"/>
  <path class="road-line" d="M 77.286,178.701 L 92.298,390.071 L 87.837,392.512 L 78.645,390.897 M 90.269,178.701 L 91.892,200.205 L 219.691,201.014 L 276.892,204.668 L 264.517,104.662 L 247.606,60.751 M 215.226,246.047 L 216.036,242.399 L 219.691,238.342 L 228.617,241.993 L 276.49,241.586 L 278.516,238.342 M 276.892,207.912 L 219.691,204.258 L 91.892,203.451 L 100.414,319.484 L 106.092,325.161 L 105.687,327.595 C 105.687,327.595 114.613,328.814 117.049,328.002 C 119.48,327.192 120.292,327.192 120.292,320.295 L 120.292,220.897 L 96.357,220.897 L 96.357,216.433 L 123.942,216.433 L 124.681,246.444 M 124.718,253.191 C 125.042,266.305 125.386,275.615 125.567,276.883 C 125.972,279.726 126.377,280.536 129.215,280.942 C 132.059,281.348 209.953,279.726 212.79,279.726 C 215.633,279.726 216.253,278.189 216.341,275.325 M 276.083,209.942 L 239.977,211.159 L 236.729,221.705 L 244.841,222.113 L 244.841,217.245 C 244.841,215.213 244.437,215.213 247.275,215.213 C 250.117,215.213 278.107,214.81 278.107,214.81 L 280.95,235.095 L 278.516,238.342 L 229.835,239.555 L 216.036,231.851 L 216.444,204.258 M 131.246,212.379 L 138.952,212.379 L 138.952,233.878 L 131.246,233.878 Z"/>
  <path class="road-line" d="M 141.998,212.38 L 149.707,212.38 L 149.707,233.878 L 141.998,233.878 Z M 152.749,212.38 L 160.457,212.38 L 160.457,233.878 L 152.749,233.878 Z M 163.502,212.38 L 171.208,212.38 L 171.208,233.878 L 163.502,233.878 Z M 174.254,212.38 L 181.959,212.38 L 181.959,233.878 L 174.254,233.878 Z M 185.003,212.38 L 192.711,212.38 L 192.711,233.878 L 185.003,233.878 Z"/>
  <path class="road-line" d="M 127.051,214.27 L 127.051,237.258 L 196.564,237.258 L 196.564,203.992"/>
  <path class="road-line" d="M 114.345,207.781 L 127.326,207.781 L 127.326,213.73 L 114.345,213.73 Z M 114.345,203.451 L 114.345,209.402 M 215.227,246.047 L 123.936,246.552 M 124.084,252.676 L 170.091,252.642 C 170.091,252.642 171.411,252.574 171.31,254.266 C 171.184,256.396 171.208,257.817 171.208,257.817 M 196.667,265.116 C 196.667,265.852 196.15,266.371 195.518,266.371 L 178.887,266.371 C 178.249,266.371 177.734,265.852 177.734,265.218 L 177.734,253.591 C 177.734,252.959 178.249,252.442 178.887,252.442 L 195.551,252.285 C 196.183,252.285 196.667,252.959 196.667,253.489 L 196.667,265.116 M 204.782,253.489 C 204.782,252.856 205.297,252.34 205.93,252.34 L 215.194,252.34 C 215.825,252.34 216.341,252.856 216.341,253.489 L 216.341,275.566 M 204.777,253.467 L 204.777,262.897 M 182.905,296.681 C 182.905,297.696 183.734,298.523 184.748,298.523 L 214.336,298.523 C 215.346,298.523 216.176,297.696 216.176,296.681 L 216.176,287.378 C 216.176,286.365 215.346,285.538 214.336,285.538 L 184.748,285.538 C 183.734,285.538 182.905,286.365 182.905,287.378 L 182.905,296.681"/>
  <path class="road-line" d="M 107.15,327.084 C 107.15,327.906 106.485,328.568 105.67,328.568 C 104.85,328.568 104.189,327.906 104.189,327.084 C 104.189,326.259 104.85,325.596 105.67,325.596 C 106.485,325.596 107.15,326.259 107.15,327.084 M 202.597,392.673 L 117.916,393.485 L 116.304,336.682 C 116.304,336.682 116.571,334.657 112.937,334.251 C 109.303,333.845 106.476,334.793 106.476,334.793 L 101.763,336.954 L 105.669,393.892 L 202.33,409.173 L 274.221,409.173 L 281.058,402.682 L 280.681,365.352 L 202.597,363.733 L 202.597,392.673"/>
  <path class="road-line" d="M 107.175,335.574 C 107.175,336.396 106.508,337.065 105.688,337.065 C 104.864,337.065 104.2,336.396 104.2,335.574 C 104.2,334.754 104.864,334.09 105.688,334.09 C 106.508,334.09 107.175,334.754 107.175,335.574 M 253.179,335.311 L 227.857,335.389 C 227.229,335.389 226.704,334.875 226.684,334.232 L 225.653,296.696 C 225.635,296.063 226.136,295.537 227.573,295.399 L 233.217,295.322 M 232.133,278.235 L 232.133,278.39 C 228.963,278.601 226.452,281.233 226.452,284.456 C 226.452,287.679 228.963,290.312 232.133,290.519 L 232.133,290.54 L 243.629,290.54 L 243.629,278.235 L 232.133,278.235 M 276.895,247.807 L 232.133,247.807 L 232.133,247.963 C 228.963,248.172 226.452,250.803 226.452,254.028 C 226.452,257.249 228.963,259.886 232.133,260.096 L 232.133,260.114 L 280.415,260.114 L 280.415,252.54 L 276.895,247.807 M 235.513,260.114 L 280.412,260.114 L 280.412,290.54 L 235.513,290.54 Z M 336.889,11.805 L 287.443,57.806 L 267.765,66.932 L 261.276,76.668 L 270.539,100.807 L 272.3,115.145 L 317.062,107.705 L 317.194,103.786 M 253.289,57.301 L 257.015,66.117 L 264.115,66.729 L 266.955,62.064 L 286.633,52.936 L 334.305,8.511 L 330.907,3.937 M 345.181,5.195 L 340.387,9.323 L 400.84,92.084 C 400.84,92.084 416.859,119.064 423.758,133.266 C 430.658,147.463 480.152,275.665 480.152,275.665 M 397.347,94.706 C 397.347,94.706 413.367,121.687 420.267,135.882 C 427.167,150.082 476.654,278.285 476.654,278.285 L 468.929,285.404 L 480.83,326.242 L 473.661,330.305 L 475.959,341.93 L 442.964,353.559 L 439.378,352.145 M 336.938,11.959 L 397.393,94.722 M 316.044,101.823 L 318.278,100.201 L 318.071,85.798 L 319.092,84.174 L 319.092,67.134 L 331.46,51.109 L 325.781,32.042 M 330.584,39.608 L 350.531,34.403 M 328.722,29.506 L 334.403,49.384 C 334.403,49.384 341.4,47.864 343.225,46.952 C 345.055,46.037 346.37,44.111 345.662,41.676 M 338.966,33.764 L 343.225,46.952 M 348.162,40.492 C 347.961,39.41 348.904,44.955 347.349,46.849 C 345.796,48.742 345.321,49.283 345.321,49.283 M 357.695,57.261 C 357.427,57.398 322.273,69.976 322.273,69.976 L 322.404,68.15 L 333.558,52.529 L 343.225,49.487 L 350.192,48.877 L 351.881,52.123 L 351.746,54.423 L 348.028,55.03 M 348.706,51.718 C 348.904,51.718 350.056,50.096 352.357,49.35 C 354.654,48.607 362.429,46.849 362.429,46.849 M 367.499,64.89 L 341.944,73.763 L 344.652,81.335 L 324.36,88.772 L 323.281,104.324 L 326.662,106.491 C 326.662,106.491 372.238,87.824 375.749,86.338 C 379.266,84.849 381.297,85.529 382.381,86.473 C 383.458,87.42 386.029,91.07 386.029,91.07"/>
  <path class="road-line" d="M 273.784,114.737 C 273.784,115.632 273.059,116.359 272.163,116.359 C 271.264,116.359 270.539,115.632 270.539,114.737 C 270.539,113.84 271.264,113.113 272.163,113.113 C 273.059,113.113 273.784,113.84 273.784,114.737 M 288.796,125.151 L 288.118,118.388 L 310.703,115.006 L 311.785,121.232 M 317.061,127.45 C 316.926,127.045 315.033,119.605 315.436,117.31 L 341.672,166.667 L 337.343,169.373 M 272.839,120.689 L 288.454,240.978 L 302.456,234.283 L 325.984,232.864 L 330.855,230.43 L 344.039,229.414 L 361.686,236.311 C 361.686,236.311 369.597,237.125 371.22,232.864 C 372.844,228.606 372.844,222.114 367.772,213.19 C 362.703,204.259 343.835,170.588 343.835,170.588 L 338.562,172.417"/>
  <path class="road-line" d="M 290.079,240.17 C 290.079,241.064 289.354,241.789 288.457,241.789 C 287.562,241.789 286.835,241.064 286.835,240.17 C 286.835,239.27 287.562,238.545 288.457,238.545 C 289.354,238.545 290.079,239.27 290.079,240.17 M 358.716,115.17 L 351.917,101.423 C 351.632,100.856 350.923,100.59 350.34,100.832 L 323.673,111.864 C 323.086,112.106 322.84,112.766 323.113,113.335 L 332.294,131.881 C 332.572,132.449 333.281,132.716 333.867,132.473 L 360.538,121.443 C 361.125,121.198 361.371,120.539 361.089,119.971 L 358.716,115.17 M 364.376,125.759 C 364.081,125.195 363.365,124.931 362.78,125.175 L 336.108,136.206 C 335.522,136.446 335.281,137.104 335.576,137.666 L 347.691,161.101 C 347.982,161.662 348.695,161.925 349.283,161.681 L 375.953,150.649 C 376.539,150.411 376.784,149.752 376.49,149.187 L 364.376,125.759 M 386.272,167.649 C 385.839,166.807 384.768,166.41 383.888,166.777 L 358.276,177.37 C 357.398,177.73 357.04,178.716 357.477,179.56 L 369.068,201.97 C 369.501,202.816 370.57,203.208 371.451,202.845 L 397.061,192.252 C 397.941,191.891 398.297,190.904 397.865,190.06 L 386.272,167.649 M 392.766,164.2 C 392.329,163.356 391.257,162.966 390.379,163.328 L 380.755,167.342 M 360.167,125.858 L 373.957,120.282 L 373.857,123.834 L 388.059,123.834 L 388.059,159.026 L 383.594,161.36 M 358.716,115.17 L 378.725,107.604 M 392.625,118.864 L 392.521,135.698 M 398.201,142.697 L 411.081,142.697 L 411.081,157.201 L 398.201,157.201 Z M 366.477,163.496 C 365.824,162.379 364.874,162.001 364.059,162.348 L 353.034,167.071 C 352.219,167.422 351.837,168.373 352.188,169.187 L 353.876,173.123 C 354.227,173.938 355.173,174.319 355.992,173.97 L 367.013,169.246 C 367.828,168.895 368.212,167.945 368.165,167.436 L 366.477,163.496 M 369.495,202.539 C 369.495,202.539 376.901,215.825 378.12,220.49 C 379.335,225.154 380.148,231.443 380.552,234.489 C 380.552,234.489 380.854,239.254 383.391,239.965 C 386.54,240.848 408.344,240.17 408.344,240.17 C 408.344,240.17 410.171,238.751 410.372,237.125 C 410.576,235.501 410.372,231.038 410.372,231.038 M 413.721,231.038 C 413.721,231.038 413.516,235.501 413.721,237.125 C 413.918,238.751 415.75,240.17 415.75,240.17 C 415.75,240.17 432.993,240.571 436.339,240.268 L 436.945,247.875 M 440.802,271.343 L 441.885,296.222 M 288.659,247.267 C 288.965,247.064 302.556,238.751 302.556,238.751 L 323.552,237.834 L 325.073,244.326 L 328.723,244.021 L 328.014,235.808 C 328.014,235.808 344.238,234.791 345.562,235.097 C 346.879,235.399 347.691,235.299 347.792,236.719 C 348.021,239.921 347.939,239.672 348.397,255.279 M 337.75,259.439 L 337.75,251.428 L 331.768,251.428 M 351.746,258.522 L 351.546,237.43 C 351.546,237.43 356.719,240.473 360.37,240.878 C 364.018,241.283 372.036,240.878 372.036,240.878 L 372.036,257.31 M 363.206,284.392 C 363.206,284.392 368.38,284.593 369.089,283.986 C 369.801,283.376 368.586,256.296 368.586,256.296 C 368.586,256.296 370.51,255.585 371.118,258.325 C 371.727,261.063 372.336,287.941 372.336,287.941 L 370.411,290.376 L 363.206,290.478 L 363.206,284.392 M 384.81,331.381 C 385.107,332.874 386.595,334.09 388.116,334.09 L 424.789,334.09 C 426.307,334.09 427.52,332.848 427.475,331.334 L 427.074,315.481 C 427.039,313.962 425.763,312.72 424.245,312.72 L 383.784,312.72 C 382.27,312.72 381.268,313.941 381.569,315.43 L 384.81,331.381 M 399.96,303.04 C 399.96,304.047 399.125,304.878 398.118,304.878 L 382.331,304.878 C 381.311,304.878 380.404,304.054 380.309,303.05 L 379.852,298.323 C 379.755,297.316 380.499,296.49 381.514,296.49 L 398.118,296.49 C 399.125,296.49 399.96,297.322 399.96,298.331 L 399.96,303.04 M 431.072,339.962 C 430.919,338.964 429.966,338.146 428.958,338.146 L 388.005,338.146 C 386.995,338.146 386.29,338.964 386.448,339.962 L 388.052,350.394 C 388.202,351.391 389.158,352.207 390.167,352.207 L 431.113,352.207 C 432.13,352.207 432.833,351.391 432.677,350.394 L 431.072,339.962 M 280.952,292.166 L 280.681,365.464 M 288.659,247.267 L 289.068,403.812 L 294.75,410.093 L 405.366,410.632 L 405.905,406.032 L 407.534,405.222 L 405.905,400.085 L 401.849,400.353"/>
  <path class="road-line" d="M 477.365,341.391 C 477.365,342.287 476.643,343.014 475.746,343.014 C 474.849,343.014 474.122,342.287 474.122,341.391 C 474.122,340.49 474.849,339.77 475.746,339.77 C 476.643,339.77 477.365,340.49 477.365,341.391 M 203.054,410.092 L 203.054,393.592 M 289.068,298.926 L 368.312,298.926 L 381.021,388.18 L 366.692,390.887 L 365.609,410.362 M 341.804,295.14 C 341.804,295.14 365.609,295.275 368.177,295.275 C 370.746,295.275 371.29,296.221 371.832,297.979 C 372.371,299.737 380.89,359.648 380.89,359.648 L 384.945,390.483 L 383.999,392.916 M 401.849,400.354 L 405.094,400.354 L 405.094,402.924 L 401.849,402.924 Z M 407.669,372.425 C 407.669,371.794 408.185,371.275 408.819,371.275 L 409.988,371.275 L 410.105,370.871 L 410.105,360.055 L 393.206,360.055 L 393.195,360.055 L 393.192,360.055 L 392.79,360.055 L 392.79,360.097 C 390.821,360.318 389.274,362.08 389.274,364.245 C 389.274,366.413 390.765,368.169 392.79,369.382 L 407.264,381.012 L 407.669,379.565 L 407.669,372.425 M 414.695,360.055 L 430.659,360.055 L 430.659,375.063 L 414.695,375.063 Z"/>
  <path class="road-line" d="M 421.599,374.928 C 421.599,377.32 419.659,379.255 417.268,379.255 C 414.876,379.255 412.941,377.32 412.941,374.928 C 412.941,372.538 414.876,370.603 417.268,370.603 C 419.659,370.603 421.599,372.538 421.599,374.928 M 413.63,388.453 C 413.255,388.453 412.941,388.145 412.941,387.762 L 412.941,383.059 C 412.941,382.677 412.633,382.365 412.254,382.365 L 411.195,382.365 C 410.819,382.365 410.507,382.677 410.507,383.059 L 410.507,387.762 L 410.507,389.143 L 410.507,390.063 C 410.507,390.442 410.819,390.75 411.195,390.75 L 412.254,390.75 L 413.63,390.75 L 424.961,390.75 C 425.338,390.75 425.652,390.442 425.652,390.063 L 425.652,389.143 C 425.652,388.768 425.338,388.453 424.961,388.453 L 413.63,388.453 M 442.693,384.934 L 442.693,362.486 L 448.371,355.726 L 484.076,344.906 L 498.677,408.467 M 480.559,378.984 L 489.215,378.984 L 489.215,397.918 L 480.559,397.918 Z"/>
  <path class="road-line" d="M 478.664,346.799 C 478.664,347.697 477.94,348.422 477.042,348.422 C 476.148,348.422 475.42,347.697 475.42,346.799 C 475.42,345.904 476.148,345.181 477.042,345.181 C 477.94,345.181 478.664,345.904 478.664,346.799 M 452.568,397.238 L 420.516,397.238 L 426.329,404.682 L 480.698,403.733 L 480.698,408.871 L 513.903,408.815 M 476.23,408.607 L 476.096,406.577 L 424.163,407.928 C 424.163,407.928 420.646,403.464 419.974,402.514 C 419.295,401.573 419.022,400.757 417.133,401.027 C 415.24,401.297 414.729,402.586 415.016,404.206 C 415.417,406.505 416.458,408.467 418.35,409.414 C 420.246,410.362 424.144,410.121 424.144,410.121 L 471.498,409.143"/>
  <path class="road-line" d="M 477.851,409.009 C 477.851,409.904 477.129,410.632 476.232,410.632 C 475.337,410.632 474.608,409.904 474.608,409.009 C 474.608,408.113 475.337,407.386 476.232,407.386 C 477.129,407.386 477.851,408.113 477.851,409.009 M 409.693,406.302 C 409.693,406.933 409.184,407.443 408.558,407.443 C 407.93,407.443 407.423,406.933 407.423,406.302 C 407.423,405.677 407.93,405.167 408.558,405.167 C 409.184,405.167 409.693,405.677 409.693,406.302 M 415.374,406.302 C 415.374,406.933 414.866,407.443 414.244,407.443 C 413.615,407.443 413.104,406.933 413.104,406.302 C 413.104,405.677 413.615,405.167 414.244,405.167 C 414.866,405.167 415.374,405.677 415.374,406.302"/>
  <path class="road-line" d="M 482.315,409.009 C 482.315,409.904 481.591,410.632 480.698,410.632 C 479.8,410.632 479.068,409.904 479.068,409.009 C 479.068,408.113 479.8,407.386 480.698,407.386 C 481.591,407.386 482.315,408.113 482.315,409.009 M 74.92,404.611 L 90.605,407.042 L 93.582,414.89 L 90.314,426.923 M 99.65,427.552 C 99.92,426.195 103.25,416.853 103.25,416.853 L 108.392,409.81 C 108.392,409.81 187.1,423.339 191.156,423.88 C 195.211,424.419 227.937,424.009 234.16,423.88 C 246.869,423.607 275.001,423.88 275.001,423.88 L 281.393,429.263 L 281.393,441.37 M 289.064,441.37 L 289.064,429.263 L 294.75,423.88 L 474.04,423.88 L 481.103,429.263 L 481.103,441.37 M 513.707,423.88 L 495.216,423.88 L 488.47,429.263 C 488.47,429.263 488.579,440.808 488.47,441.37"/>
  <path class="road-line" d="M 201.695,212.205 L 201.695,237.359 M 204.942,212.205 L 204.942,237.359 M 208.188,212.205 L 208.188,237.359 M 211.431,212.205 L 211.431,237.359"/>
  <path class="road-line" d="M 201.427,206.797 L 211.432,206.797 L 211.432,213.019 L 201.427,213.019 Z"/>
  <path class="road-line" d="M 201.427,235.735 L 211.432,235.735 L 211.432,241.958 L 201.427,241.958 Z"/>
  <path class="road-line" d="M 201.427,235.735 L 211.432,235.735 L 211.432,241.958 L 201.427,241.958 Z M 182.856,323.383 C 182.856,324.739 183.684,325.853 184.696,325.853 L 214.285,325.853 C 215.296,325.853 216.127,324.739 216.127,323.383 L 216.127,310.894 C 216.127,309.535 215.296,308.422 214.285,308.422 L 184.696,308.422 C 183.684,308.422 182.856,309.535 182.856,310.894 L 182.856,323.383 M 126.465,317.509 L 138.767,317.509 L 138.767,325.68 C 139.174,326.169 138.5,327.386 140.662,327.521 L 165.463,327.521 C 166.477,327.521 167.303,326.691 167.303,325.68 L 167.303,288.518 C 167.303,287.507 166.477,286.677 165.463,286.677 L 128.302,286.677 C 127.293,286.677 126.465,287.507 126.465,288.518 L 126.465,317.509 M 172.716,323.681 C 172.716,325.196 173.901,326.438 175.35,326.438 C 176.802,326.438 177.986,325.196 177.986,323.681 L 177.986,317.162 C 177.986,315.642 176.802,314.403 175.35,314.403 C 173.901,314.403 172.716,315.642 172.716,317.162 L 172.716,323.681 M 126.599,324.895 C 126.599,326.41 127.841,327.657 129.357,327.657 L 132.496,327.657 C 134.012,327.657 135.254,326.41 135.254,324.895 L 135.254,324.734 C 135.254,323.217 134.012,321.97 132.496,321.97 L 129.357,321.97 C 127.841,321.97 126.599,323.217 126.599,324.734 L 126.599,324.895 M 145.532,354.7 L 145.532,337.989 C 145.532,336.47 144.291,335.228 142.772,335.228 L 122.733,335.228 C 121.214,335.228 119.97,336.47 119.97,337.989 L 119.97,354.7 L 145.532,354.7 M 168.181,351.863 C 168.223,349.777 168.25,349.58 168.25,349.374 L 168.25,337.448 C 168.25,335.932 167.009,334.685 165.49,334.685 L 160.867,334.685 C 159.351,334.685 158.106,335.932 158.106,337.448 L 158.106,349.374 C 158.106,349.58 158.134,349.777 158.176,351.863 M 182.47,350.183 L 182.564,337.04 C 182.575,335.525 183.422,334.671 184.94,334.617 L 202.848,334.617 C 204.361,334.564 204.899,334.712 204.899,336.231 L 204.899,354.7 L 145.532,354.7 M 119.97,385.132 L 119.97,358.218 L 162.708,358.218 L 162.708,361.461 M 188.266,388.641 C 188.266,390.161 189.509,391.401 191.026,391.401 L 194.565,391.401 C 196.087,391.401 197.327,390.161 197.327,388.641 L 197.327,376.666 C 197.327,375.147 196.087,373.906 194.565,373.906 L 191.026,373.906 C 189.509,373.906 188.266,376.147 188.266,377.666 L 188.266,387.641 L 188.266,388.641 M 162.708,358.218 L 195.886,358.065 C 196.9,358.065 197.271,358.899 197.271,359.908 L 197.327,361.487"/>
  <path class="road-line" d="M 274.517,121.109 C 274.517,121.109 276.138,119.348 277.49,120.43 C 278.843,121.514 278.71,123.001 279.383,126.249 C 280.062,129.492 280.936,136.628 280.936,136.628 M 95.438,205.669 L 103.821,205.669 L 103.821,213.785 L 95.438,213.785 Z M 95.438,205.669 L 103.821,205.669 L 103.821,213.785 L 95.438,213.785 Z M 97.738,222.171 L 113.762,222.171 L 113.762,227.65 L 97.738,227.65 Z M 97.738,222.171 L 113.762,222.171 L 113.762,227.65 L 97.738,227.65 Z"/>
  <path class="road-line" d="M 190.508,257.063 L 210.526,257.063 L 210.526,270.448 L 190.508,270.448 Z"/>
  <path class="road-line" d="M 171.847,259.364 L 171.847,255.303 L 157.378,255.303 L 157.378,259.364 L 151.563,259.364 L 151.563,271.262 L 184.157,271.262 L 184.157,259.364 L 171.847,259.364"/>
  <path class="road-line" d="M 129.655,298.038 L 151.425,298.038 L 151.425,310.208 L 129.655,310.208 Z"/>
  <path class="road-line" d="M 156.296,298.038 L 210.795,298.038 L 210.795,310.208 L 156.296,310.208 Z"/>
  <path class="road-line" d="M 145.341,339.422 L 127.896,339.422 L 127.896,354.294 L 145.341,354.294 L 145.341,351.727 L 159.134,351.727 L 159.134,339.422 L 145.341,339.422"/>
  <path class="road-line" d="M 167.248,339.422 L 200.788,339.422 L 200.788,351.861 L 167.248,351.861 Z"/>
  <path class="road-line" d="M 140.878,379.452 L 140.878,358.216 L 123.569,358.216 L 123.569,368.225 L 129.112,368.225 L 129.112,379.452 L 120.053,379.452 L 120.053,391.889 L 152.511,391.889 L 152.511,379.452 L 140.878,379.452"/>
  <path class="road-line" d="M 197.271,363.762 L 185.778,363.762 L 185.778,369.576 L 173.469,369.576 L 173.469,363.762 L 161.975,363.762 L 161.975,375.66 L 170.629,375.66 L 170.629,379.45 L 156.703,379.45 L 156.703,391.213 L 191.593,391.213 L 191.593,379.858 L 197.271,379.858 L 197.271,363.762"/>
  <path class="road-line" d="M 244.875,346.183 L 224.319,346.183 L 224.319,349.288 L 216.071,349.288 L 216.071,359.431 L 229.592,359.431 L 229.592,356.321 L 244.875,356.321 L 244.875,346.183"/>
  <path class="road-line" d="M 244.604,315.615 L 244.604,321.701 L 232.637,321.701 C 232.001,321.701 231.488,322.222 231.488,322.856 L 231.488,331.779 C 231.488,332.409 232.001,332.931 232.637,332.931 L 244.604,332.931 L 244.604,333.067 L 254.613,333.067 L 254.613,315.615 L 244.604,315.615"/>
  <path class="road-line" d="M 242.172,297.498 L 228.377,297.498 L 228.377,316.567 L 242.172,316.567 L 242.172,308.521 L 254.077,308.521 C 254.077,308.499 254.072,308.473 254.072,308.452 L 254.072,306.291 C 254.072,305.215 254.907,304.34 255.966,304.27 L 255.966,297.498 L 242.172,297.498"/>
  <path class="road-line" d="M 257.587,283.436 L 278.683,283.436 L 278.683,296.955 L 257.587,296.955 Z"/>
  <path class="road-line" d="M 260.225,309.4 L 260.225,340.435 L 253.734,340.435 L 253.734,358.895 L 276.251,358.895 L 276.251,309.4 L 260.225,309.4"/>
  <path class="road-line" d="M 256.775,219.329 L 256.775,222.575 L 246.024,222.575 L 246.024,219.128 L 239.533,219.128 L 239.533,212.029 L 226.145,212.029 L 226.145,217.912 L 232.637,217.912 L 232.637,221.563 L 223.1,221.563 L 223.1,229.679 L 246.024,229.679 L 246.024,227.447 L 268.542,227.447 L 268.542,219.329 L 256.775,219.329"/>
  <path class="road-line" d="M 311.219,66.171 L 314.212,76.106 L 277.995,85.256 L 275.003,75.318 Z"/>
  <path class="road-line" d="M 311.219,66.171 L 314.212,76.106 L 277.995,85.256 L 275.003,75.318 Z"/>
  <path class="road-line" d="M 280.532,102.893 L 281.941,101.472 L 280.371,91.187 L 271.348,92.563 L 274.221,111.414 L 281.623,110.038 L 280.532,102.893"/>
  <path class="road-line" d="M 359.421,102.487 C 360.231,101.068 360.432,99.85 360.026,99.038 C 359.621,98.225 358.808,96.807 358.808,96.807 L 361.65,95.385 L 362.464,97.013 C 362.464,97.013 367.94,92.549 371.995,93.561 C 376.056,94.576 374.837,96.604 374.43,97.417"/>
  <path class="road-line" d="M 299.154,202.595 L 302.707,212.313 L 294.32,215.374 L 290.77,205.655 Z"/>
  <path class="road-line" d="M 299.154,202.595 L 302.707,212.313 L 294.32,215.374 L 290.77,205.655 Z"/>
  <path class="road-line" d="M 363.883,218.117 L 352.319,192.959 L 343.177,196.902 L 341.756,193.812 L 347.855,191.134 L 343.802,182.207 L 304.853,199.451 L 308.907,208.377 L 308.96,208.559 L 311.955,215.071 L 318.477,211.898 L 320.669,217.505 L 325.134,215.474 L 325.206,219.533 L 299.578,219.533 L 299.578,231.095 L 325.339,231.095 L 325.339,227.447 L 329.602,227.24 L 329.804,224.604 L 333.25,224.807 L 334.471,227.24 L 349.071,220.141 L 351.103,225.416 L 354.554,223.998 L 352.722,218.927 L 363.883,218.117"/>
  <path class="road-line" d="M 296.94,270.248 L 302.215,270.248 L 302.215,259.092 L 291.463,259.092 L 291.463,286.274 L 296.94,286.274 L 296.94,270.248"/>
  <path class="road-line" d="M 306.072,266.396 L 326.558,266.396 L 326.558,276.537 L 306.072,276.537 Z"/>
  <path class="road-line" d="M 416.603,249.362 L 416.576,270.448 L 400.959,270.448 L 400.369,249.132 Z"/>
  <path class="road-line" d="M 416.638,249.862 L 416.576,270.448 L 400.959,270.448 L 400.888,249.612 Z"/>
  <path class="road-line" d="M 425.546,277.145 L 388.831,277.145 L 388.831,282.621 L 391.672,282.621 L 391.672,287.086 L 396.338,287.086 L 396.338,289.312 L 400.597,289.312 L 400.597,290.532 L 407.899,290.532 L 407.899,289.312 L 421.694,289.312 L 421.694,285.461 L 425.347,285.461 L 425.347,282.621 L 425.546,282.621 L 425.546,277.145"/>
  <path class="road-line" d="M 394.517,322.584 L 403.846,322.584 L 403.846,329.275 L 394.517,329.275 Z"/>
  <path class="road-line" d="M 418.246,316.089 L 418.246,322.584 L 409.121,322.584 L 409.121,329.275 L 426.973,329.275 L 426.973,316.089 L 418.246,316.089"/>
  <path class="road-line" d="M 462.737,323.464 L 469.5,323.464 L 469.5,340.638 L 462.737,340.638 Z"/>
  <path class="road-line" d="M 396.947,397.641 L 390.458,397.641 L 390.458,392.571 L 387.414,392.571 L 387.414,397.641 L 369.36,397.641 L 369.36,409.809 L 387.008,409.809 L 387.008,406.157 L 396.947,406.157 L 396.947,397.641"/>
  <path class="road-line" d="M 314.246,86.117 L 282.907,90.534 L 284.16,98.433 L 286.542,98.004 L 288.217,108.981 L 317.122,104.967 L 314.246,86.117"/>
  <path class="road-line" d="M 338.728,18.913 L 335.885,15.061 L 304.653,45.687 L 307.082,57.862 L 326.963,49.442 L 323.923,35.547 L 339.338,19.926 L 338.728,18.913"/>
  <path class="road-line" d="M 350.979,35.336 L 352.552,41.213 L 344.127,43.467 L 342.553,37.588 Z"/>
  <path class="road-line" d="M 350.979,35.336 L 352.552,41.213 L 344.127,43.467 L 342.553,37.588 Z"/>
  <path class="road-line" d="M 348.139,51.563 L 350.524,59.675 L 334.387,65.377 L 332.005,57.266 Z"/>
  <path class="road-line" d="M 348.139,51.563 L 350.524,59.675 L 334.387,65.377 L 332.005,57.266 Z"/>
  <path class="road-line" d="M 350.413,80.386 L 349.619,77.998 L 329.91,85.256 L 333.574,94.993 L 375.341,78.336 L 372.471,70.994 L 350.413,80.386"/>
  <path class="road-line" d="M 361.63,49.332 L 367.261,64.949 L 359.137,67.607 L 353.507,51.993 Z"/>
  <path class="road-line" d="M 361.63,49.332 L 367.261,64.949 L 359.137,67.607 L 353.507,51.993 Z"/>
  <path class="road-line" d="M 313.013,132.543 L 311.466,120.674 L 281.728,124.4 L 283.2,135.69 L 279.017,136.265 L 281.45,155.937 L 292.325,154.451 L 289.969,135.427 L 313.013,132.543"/>
  <path class="road-line" d="M 326.045,179.412 L 339.944,174.3 L 337.006,166.302 L 323.105,171.417 L 323.51,172.517 L 322.105,173.011 L 321.198,170.541 L 313.776,173.284 L 317.319,182.886 L 324.737,180.143 L 323.945,177.993 L 325.348,177.506 L 326.045,179.412"/>
  <path class="road-line" d="M 389.847,100.053 L 385.788,91.129 L 345.829,106.549 L 349.884,115.471 Z"/>
  <path class="road-line" d="M 389.847,100.053 L 385.788,91.129 L 345.829,106.549 L 349.884,115.471 Z"/>
  <path class="road-line" d="M 401.006,113.241 L 398.973,113.241 L 398.973,107.354 L 378.487,107.354 L 378.487,111.82 L 376.251,111.82 L 376.251,117.093 L 378.487,117.093 L 378.487,120.139 L 398.973,120.139 L 398.973,117.295 L 401.006,117.295 L 401.006,113.241"/>
  <path class="road-line" d="M 392.482,156.041 L 415.606,156.041 L 415.606,170.037 L 392.482,170.037 Z"/>
  <path class="road-line" d="M 391.668,134.739 L 404.656,134.739 L 404.656,154.014 L 391.668,154.014 Z"/>
  <path class="road-line" d="M 355.564,125.004 L 385.788,125.004 L 385.788,170.444 L 355.564,170.444 Z"/>
  <path class="road-line" d="M 452.933,247.73 L 441.166,247.73 L 441.166,246.311 L 435.894,246.311 L 435.894,275.319 L 441.166,275.319 L 441.166,273.494 L 452.933,273.494 L 452.933,247.73"/>
  <path class="road-line" d="M 301.605,242.658 L 334.065,242.658 L 334.065,255.032 L 301.605,255.032 Z"/>
  <path class="road-line" d="M 363.48,261.93 L 361.856,261.93 L 361.856,256.454 L 337.307,256.454 L 337.307,280.595 L 343.272,280.595 L 343.272,284.044 L 362.341,284.044 L 362.341,281.199 L 363.48,281.199 L 363.48,261.93"/>
  <path class="road-line" d="M 447.053,335.36 L 447.053,325.22 L 429.808,325.22 L 429.808,341.043 L 394.515,341.043 L 394.515,352.201 L 439.14,352.201 L 439.14,341.043 L 436.1,341.043 L 436.1,335.36 L 447.053,335.36"/>
  <path class="road-line" d="M 476.798,376.882 L 475.721,376.882 L 475.721,373.091 L 474.503,373.091 L 474.503,367.275 L 467.741,367.275 L 467.741,373.091 L 455.165,373.091 L 455.165,369.172 L 448.539,369.172 L 448.539,373.091 L 442.316,373.091 L 442.316,382.285 L 439.748,382.285 L 439.748,389.595 L 442.181,389.595 L 442.181,397.841 L 448.674,397.841 L 448.674,401.224 L 455.441,401.224 L 455.441,397.841 L 475.721,397.841 L 475.721,396.354 L 476.798,396.354 L 476.798,376.882"/>
  <path class="road-line" d="M 102.036,233.067 L 112.989,233.067 L 112.989,254.771 L 102.036,254.771 Z M 99.195,228.605 L 115.829,228.605 L 115.829,257.004 L 99.195,257.004 Z"/>
  <path class="road-line" d="M 130.291,273.659 L 143.247,273.659 L 143.247,279.29 L 130.291,279.29 Z"/>
  <path class="road-line" d="M 426.992,249.901 L 426.961,273.659 L 419.134,273.659 L 419.097,249.612 Z"/>
  <path class="road-line" d="M 102.036,233.067 L 112.989,233.067 L 112.989,254.771 L 102.036,254.771 Z M 99.195,228.605 L 115.829,228.605 L 115.829,257.004 L 99.195,257.004 Z"/>
  <path class="road-line" d="M 201.427,206.797 L 211.432,206.797 L 211.432,213.019 L 201.427,213.019 Z"/>
  <path class="road-line" d="M 201.427,235.735 L 211.432,235.735 L 211.432,241.958 L 201.427,241.958 Z"/>
  <path class="road-line" d="M 256.775,219.329 L 256.775,222.575 L 246.024,222.575 L 246.024,219.128 L 239.533,219.128 L 239.533,212.029 L 226.145,212.029 L 226.145,217.912 L 232.637,217.912 L 232.637,221.563 L 223.1,221.563 L 223.1,229.679 L 246.024,229.679 L 246.024,227.447 L 268.542,227.447 L 268.542,219.329 L 256.775,219.329"/>
  <path class="road-line" d="M 190.508,257.063 L 210.526,257.063 L 210.526,270.448 L 190.508,270.448 Z"/>
  <path class="road-line" d="M 171.847,259.364 L 171.847,255.303 L 157.378,255.303 L 157.378,259.364 L 151.563,259.364 L 151.563,271.262 L 184.157,271.262 L 184.157,259.364 L 171.847,259.364"/>
  <path class="road-line" d="M 129.655,298.038 L 151.425,298.038 L 151.425,310.208 L 129.655,310.208 Z"/>
  <path class="road-line" d="M 156.296,298.038 L 210.795,298.038 L 210.795,310.208 L 156.296,310.208 Z"/>
  <path class="road-line" d="M 145.341,339.422 L 127.896,339.422 L 127.896,354.294 L 145.341,354.294 L 145.341,351.727 L 159.134,351.727 L 159.134,339.422 L 145.341,339.422"/>
  <path class="road-line" d="M 167.248,339.422 L 200.788,339.422 L 200.788,351.861 L 167.248,351.861 Z"/>
  <path class="road-line" d="M 140.878,379.452 L 140.878,358.216 L 123.569,358.216 L 123.569,368.225 L 129.112,368.225 L 129.112,379.452 L 120.053,379.452 L 120.053,391.889 L 152.511,391.889 L 152.511,379.452 L 140.878,379.452"/>
  <path class="road-line" d="M 185.776,360.785 L 185.776,363.763 L 185.778,363.763 L 185.778,369.577 L 173.469,369.577 L 173.469,363.763 L 173.467,363.763 L 173.467,360.785 L 161.975,360.785 L 161.975,363.763 L 161.975,375.661 L 170.629,375.661 L 170.629,379.45 L 156.703,379.45 L 156.703,391.214 L 191.593,391.214 L 191.593,379.858 L 197.271,379.858 L 197.271,363.763 L 197.271,360.785 L 185.776,360.785"/>
  <path class="road-line" d="M 244.875,346.183 L 224.319,346.183 L 224.319,349.288 L 216.071,349.288 L 216.071,359.431 L 229.592,359.431 L 229.592,356.321 L 244.875,356.321 L 244.875,346.183"/>
  <path class="road-line" d="M 244.604,315.615 L 244.604,321.701 L 232.637,321.701 C 232.001,321.701 231.488,322.222 231.488,322.856 L 231.488,331.779 C 231.488,332.409 232.001,332.931 232.637,332.931 L 244.604,332.931 L 244.604,333.067 L 254.613,333.067 L 254.613,315.615 L 244.604,315.615"/>
  <path class="road-line" d="M 242.172,297.498 L 228.377,297.498 L 228.377,316.567 L 242.172,316.567 L 242.172,308.521 L 254.077,308.521 C 254.077,308.499 254.072,308.473 254.072,308.452 L 254.072,306.291 C 254.072,305.215 254.907,304.34 255.966,304.27 L 255.966,297.498 L 242.172,297.498"/>
  <path class="road-line" d="M 241.99,253.06 L 241.99,257.602 L 234.687,257.602 L 234.687,274.155 L 241.99,274.155 L 241.99,279.352 L 278.992,279.352 L 278.992,253.06 L 241.99,253.06"/>
  <path class="road-line" d="M 257.587,283.436 L 278.683,283.436 L 278.683,296.955 L 257.587,296.955 Z"/>
  <path class="road-line" d="M 260.225,309.4 L 260.225,340.435 L 253.734,340.435 L 253.734,358.895 L 276.251,358.895 L 276.251,309.4 L 260.225,309.4"/>
  <path class="road-line" d="M 130.291,273.659 L 143.247,273.659 L 143.247,279.29 L 130.291,279.29 Z"/>
  <path class="road-line" d="M 311.219,66.171 L 314.212,76.106 L 277.995,85.256 L 275.003,75.318 Z"/>
  <path class="road-line" d="M 280.532,102.893 L 281.941,101.472 L 280.371,91.187 L 271.348,92.563 L 274.221,111.414 L 281.623,110.038 L 280.532,102.893"/>
  <path class="road-line" d="M 359.421,102.487 C 360.231,101.068 360.432,99.85 360.026,99.038 C 359.621,98.225 358.808,96.807 358.808,96.807 L 361.65,95.385 L 362.464,97.013 C 362.464,97.013 367.94,92.549 371.995,93.561 C 376.056,94.576 374.837,96.604 374.43,97.417"/>
  <path class="road-line" d="M 299.154,202.595 L 302.707,212.313 L 294.32,215.374 L 290.77,205.655 Z"/>
  <path class="road-line" d="M 363.883,218.117 L 352.319,192.959 L 343.177,196.902 L 341.756,193.812 L 347.855,191.134 L 343.802,182.207 L 304.853,199.451 L 308.907,208.377 L 308.96,208.559 L 311.955,215.071 L 318.477,211.898 L 320.669,217.505 L 325.134,215.474 L 325.206,219.533 L 299.578,219.533 L 299.578,231.095 L 325.339,231.095 L 325.339,227.447 L 329.602,227.24 L 329.804,224.604 L 333.25,224.807 L 334.471,227.24 L 349.071,220.141 L 351.103,225.416 L 354.554,223.998 L 352.722,218.927 L 363.883,218.117"/>
  <path class="road-line" d="M 296.94,270.248 L 302.215,270.248 L 302.215,259.092 L 291.463,259.092 L 291.463,286.274 L 296.94,286.274 L 296.94,270.248"/>
  <path class="road-line" d="M 306.072,266.396 L 326.558,266.396 L 326.558,276.537 L 306.072,276.537 Z"/>
  <path class="road-line" d="M 416.638,249.862 L 416.576,270.448 L 400.959,270.448 L 400.888,249.612 Z"/>
  <path class="road-line" d="M 426.992,249.901 L 426.961,273.659 L 419.134,273.659 L 419.097,249.612 Z"/>
  <path class="road-line" d="M 425.546,277.145 L 388.831,277.145 L 388.831,282.621 L 391.672,282.621 L 391.672,287.086 L 396.338,287.086 L 396.338,289.312 L 400.597,289.312 L 400.597,290.532 L 407.899,290.532 L 407.899,289.312 L 421.694,289.312 L 421.694,285.461 L 425.347,285.461 L 425.347,282.621 L 425.546,282.621 L 425.546,277.145"/>
  <path class="road-line" d="M 394.517,322.584 L 403.846,322.584 L 403.846,329.275 L 394.517,329.275 Z"/>
  <path class="road-line" d="M 418.246,316.089 L 418.246,322.584 L 409.121,322.584 L 409.121,329.275 L 426.973,329.275 L 426.973,316.089 L 418.246,316.089"/>
  <path class="road-line" d="M 462.737,323.464 L 469.5,323.464 L 469.5,340.638 L 462.737,340.638 Z"/>
  <path class="road-line" d="M 396.947,397.641 L 390.458,397.641 L 390.458,392.571 L 387.414,392.571 L 387.414,397.641 L 369.36,397.641 L 369.36,409.809 L 387.008,409.809 L 387.008,406.157 L 396.947,406.157 L 396.947,397.641"/>
  <path class="road-line" d="M 314.246,86.117 L 282.907,90.534 L 284.16,98.433 L 286.542,98.004 L 288.217,108.981 L 317.122,104.967 L 314.246,86.117"/>
  <path class="road-line" d="M 338.728,18.913 L 335.885,15.061 L 304.653,45.687 L 307.082,57.862 L 326.963,49.442 L 323.923,35.547 L 339.338,19.926 L 338.728,18.913"/>
  <path class="road-line" d="M 350.979,35.336 L 352.552,41.213 L 344.127,43.467 L 342.553,37.588 Z"/>
  <path class="road-line" d="M 348.139,51.563 L 350.524,59.675 L 334.387,65.377 L 332.005,57.266 Z"/>
  <path class="road-line" d="M 350.413,80.386 L 349.619,77.998 L 329.91,85.256 L 333.574,94.993 L 375.341,78.336 L 372.471,70.994 L 350.413,80.386"/>
  <path class="road-line" d="M 361.63,49.332 L 367.261,64.949 L 359.137,67.607 L 353.507,51.993 Z"/>
  <path class="road-line" d="M 313.013,132.543 L 311.466,120.674 L 281.728,124.4 L 283.2,135.69 L 279.017,136.265 L 281.45,155.937 L 292.325,154.451 L 289.969,135.427 L 313.013,132.543"/>
  <path class="road-line" d="M 326.045,179.412 L 339.944,174.3 L 337.006,166.302 L 323.105,171.417 L 323.51,172.517 L 322.105,173.011 L 321.198,170.541 L 313.776,173.284 L 317.319,182.886 L 324.737,180.143 L 323.945,177.993 L 325.348,177.506 L 326.045,179.412"/>
  <path class="road-line" d="M 387.009,196.206 L 401.003,196.206 L 401.003,217.612 L 387.009,217.612 Z M 410.332,191.8 L 410.332,204.376 L 407.089,204.376 L 407.089,191.8 L 387.817,191.8 L 387.817,188.754 L 400.19,188.754 L 400.19,176.382 L 381.126,176.382 L 381.126,222.225 L 407.089,222.225 L 407.089,208.633 L 410.332,208.633 L 410.332,222.225 L 423.519,222.225 L 423.519,191.8 L 410.332,191.8"/>
  <path class="road-line" d="M 401.006,113.241 L 398.973,113.241 L 398.973,107.354 L 378.487,107.354 L 378.487,111.82 L 376.251,111.82 L 376.251,117.093 L 378.487,117.093 L 378.487,120.139 L 398.973,120.139 L 398.973,117.295 L 401.006,117.295 L 401.006,113.241"/>
  <path class="road-line" d="M 355.564,125.004 L 385.788,125.004 L 385.788,170.444 L 355.564,170.444 Z"/>
  <path class="road-line" d="M 457.194,287.489 L 457.194,289.517 L 455.566,289.517 L 455.566,287.489 L 453.134,285.255 L 450.905,286.88 L 450.905,293.371 L 438.938,293.371 L 438.938,303.513 L 433.258,303.513 L 431.227,305.544 L 433.258,308.382 L 434.882,308.382 L 434.882,310.205 L 433.461,310.205 L 433.461,314.468 L 438.731,314.468 L 438.731,308.584 L 441.574,308.584 L 441.574,316.7 L 443.604,316.7 L 443.604,318.525 L 454.554,318.525 L 454.554,316.906 L 462.469,316.906 L 462.469,308.584 L 464.901,308.584 L 464.901,300.068 L 461.656,296.212 L 455.566,296.212 L 455.566,293.371 L 464.499,293.371 L 464.499,287.086 L 456.811,287.086"/>
  <path class="road-line" d="M 452.933,247.73 L 441.166,247.73 L 441.166,246.311 L 435.894,246.311 L 435.894,275.319 L 441.166,275.319 L 441.166,273.494 L 452.933,273.494 L 452.933,247.73"/>
  <path class="road-line" d="M 301.605,242.658 L 334.065,242.658 L 334.065,255.032 L 301.605,255.032 Z"/>
  <path class="road-line" d="M 391.471,296.212 L 424.129,296.212 L 424.129,305.139 L 391.471,305.139 Z"/>
  <path class="road-line" d="M 447.053,335.36 L 447.053,325.22 L 429.808,325.22 L 429.808,341.043 L 394.515,341.043 L 394.515,352.201 L 439.14,352.201 L 439.14,341.043 L 436.1,341.043 L 436.1,335.36 L 447.053,335.36"/>
  <path class="road-line" d="M 476.798,376.882 L 475.721,376.882 L 475.721,373.091 L 474.503,373.091 L 474.503,367.275 L 467.741,367.275 L 467.741,373.091 L 455.165,373.091 L 455.165,369.172 L 448.539,369.172 L 448.539,373.091 L 442.316,373.091 L 442.316,382.285 L 439.748,382.285 L 439.748,389.595 L 442.181,389.595 L 442.181,397.841 L 448.674,397.841 L 448.674,401.224 L 455.441,401.224 L 455.441,397.841 L 475.721,397.841 L 475.721,396.354 L 476.798,396.354 L 476.798,376.882"/>
  <path class="road-line" d="M 392.482,156.041 L 415.606,156.041 L 415.606,170.037 L 392.482,170.037 Z"/>
  <path class="road-line" d="M 391.668,134.739 L 404.656,134.739 L 404.656,154.014 L 391.668,154.014 Z"/>
  <path class="road-line" d="M 389.847,100.053 L 385.788,91.129 L 345.829,106.549 L 349.884,115.471 Z"/>
  <path class="road-line" d="M 120.215,457.482 L 115.84,457.482 L 115.84,460.857 L 112.108,460.857 L 112.108,464.177 L 120.215,464.177 L 120.215,470.67 L 106.715,470.67 L 106.715,428.732 L 120.215,428.732 L 120.215,457.482"/>
  <path class="road-line" d="M 100.79,423.919 L 100.79,479.219 L 203.054,479.219 L 203.054,478.955 L 203.054,424.488"/>
  <path class="road-line" d="M 167.129,462.357 L 176.384,462.357 L 176.871,462.331 L 176.871,466.115 L 176.871,466.331 L 179.724,466.283 L 179.724,476.357 L 179.724,475.899 L 130.288,475.899 L 130.288,466.565 L 130.288,466.331 L 134.186,466.331 L 133.673,466.331 L 133.673,463.899 L 133.673,463.565 L 139.21,463.565 L 139.21,463.8 L 139.21,466.232 L 166.673,466.107 L 166.673,466.56 L 166.673,461.899"/>
  <path class="road-line" d="M 172.34,432.469 L 172.34,424.863 L 131.821,424.863 L 131.821,441.232 L 172.032,441.232 L 172.34,441.232 L 174.803,441.232 L 174.803,432.469 L 172.34,432.469"/>
  <path class="road-line" d="M 194.047,450.17 L 194.047,447.92 L 198.547,447.92 L 198.547,430.295 L 186.418,430.295 L 186.418,447.92 L 188.422,447.92 L 188.422,450.17 L 190.922,450.17"/>
  <path class="road-line" d="M 190.422,450.545 L 190.422,454.795 L 186.418,454.795 L 186.418,469.67 L 198.608,469.67 L 198.608,454.795 L 198.608,450.545 L 193.544,450.545"/>
  <path class="road-line" d="M 281.525,164.088 L 295.072,162.321 L 305.374,191.163"/>
  <path class="road-line" d="M 305.643,190.825 L 285.89,195.577 L 281.743,163.758"/>
  <path class="road-line" d="M 316.885,159.521 C 316.734,160.081 316.289,160.45 315.894,160.344 C 315.498,160.237 315.302,159.695 315.453,159.135 C 315.604,158.574 316.046,158.204 316.443,158.311 C 316.837,158.417 317.036,158.96 316.885,159.521 M 317.782,159.763 C 317.346,161.379 316.27,162.497 315.379,162.257 C 314.488,162.016 314.119,160.508 314.555,158.893 C 314.991,157.274 316.265,156.26 317.156,156.5 C 318.047,156.741 318.218,158.145 317.782,159.763 M 311.436,164.33 C 312.553,164.951 308.672,163.04 310.33,161.885 C 311.987,160.729 313.366,160.463 314.155,157.759 C 314.699,155.894 315.21,155.031 316.536,154.876 C 317.859,154.72 318.91,155.58 319.185,156.231 C 319.456,156.881 320.083,158.844 318.933,160.714 C 317.79,162.585 316.555,163.599 314.955,164.064 C 313.354,164.53 313.57,164.075 311.985,164.48"/>
  <path class="road-line" d="M 306.385,141.062 L 306.426,141.175 L 295.873,144.38 L 306.271,172.989 L 316.871,169.769 L 316.892,169.826 C 316.956,169.787 317.011,169.746 317.074,169.708 L 317.308,169.636 L 317.285,169.571 C 334.527,158.838 324.606,138.283 306.385,141.062"/>
</g>
<g id="buildings">
  <path class="building" id="building_18_part_1" d="M 338.728,18.913 L 335.885,15.061 L 304.653,45.687 L 307.082,57.862 L 326.963,49.442 L 323.923,35.547 L 339.338,19.926 L 338.728,18.913 Z"><title>18 東31号館</title></path>
  <path class="building" id="building_18_part_2" d="M 338.728,33.823 L 342.986,47.011 Z"><title>18 東31号館</title></path>
  <path class="building" id="building_32_part_1" d="M 330.341,39.668 L 350.286,34.46 Z"><title>32 保育施設「UEC保育園どんぐり」</title></path>
  <path class="building" id="building_32_part_2" d="M 350.979,35.336 L 342.553,37.588 L 344.127,43.467 L 352.552,41.213 L 350.979,35.336 Z"><title>32 保育施設「UEC保育園どんぐり」</title></path>
  <path class="building" id="building_20_part_1" d="M 356.454,41.623 L 350.263,43.064 L 351.629,47.322 L 357.826,45.879 L 356.454,41.623 Z"><title>20 職員研修所</title></path>
  <path class="building" id="building_19_part_1" d="M 361.63,49.332 L 353.507,51.993 L 359.137,67.607 L 367.261,64.949 L 361.63,49.332 Z"><title>19 東32号館</title></path>
  <path class="building" id="building_18_part_3" d="M 348.139,51.563 L 332.005,57.266 L 334.387,65.377 L 350.524,59.675 L 348.139,51.563 Z"><title>18 東31号館</title></path>
  <path class="building" id="building_22_part_1" d="M 311.219,66.171 L 275.003,75.318 L 277.995,85.256 L 314.212,76.106 L 311.219,66.171 Z"><title>22 課外活動施設</title></path>
  <path class="building" id="building_17_part_1" d="M 350.413,80.386 L 349.619,77.998 L 329.91,85.256 L 333.574,94.993 L 375.341,78.336 L 372.471,70.994 L 350.413,80.386 Z"><title>17 東10号館</title></path>
  <path class="building" id="building_24_part_1" d="M 314.246,86.117 L 282.907,90.534 L 284.16,98.433 L 286.542,98.004 L 288.217,108.981 L 317.122,104.967 L 314.246,86.117 Z"><title>24 東34号館</title></path>
  <path class="building" id="building_15_part_1" d="M 389.847,100.053 L 349.884,115.471 L 345.829,106.549 L 385.788,91.129 L 389.847,100.053 Z"><title>15 東8号館</title></path>
  <path class="building" id="building_23_part_1" d="M 280.532,102.893 L 281.941,101.472 L 280.371,91.187 L 271.348,92.563 L 274.221,111.414 L 281.623,110.038 L 280.532,102.893 Z"><title>23 東33号館</title></path>
  <path class="building" id="building_16_part_1" d="M 359.421,102.487 C 360.231,101.068 360.432,99.85 360.026,99.038 C 359.621,98.225 358.808,96.807 358.808,96.807 L 361.65,95.385 L 362.464,97.013 C 362.464,97.013 367.94,92.549 371.995,93.561 C 376.056,94.576 374.837,96.604 374.43,97.417 Z"><title>16 東9号館</title></path>
  <path class="building" id="building_15_part_2" d="M 401.006,113.241 L 398.973,113.241 L 398.973,107.354 L 378.487,107.354 L 378.487,111.82 L 376.251,111.82 L 376.251,117.093 L 378.487,117.093 L 378.487,120.139 L 398.973,120.139 L 398.973,117.295 L 401.006,117.295 L 401.006,113.241 Z"><title>15 東8号館</title></path>
  <path class="building" id="building_25_part_1" d="M 313.013,132.543 L 311.466,120.674 L 281.728,124.4 L 283.2,135.69 L 279.017,136.265 L 281.45,155.937 L 292.325,154.451 L 289.969,135.427 L 313.013,132.543 Z"><title>25 東35号館</title></path>
  <path class="building" id="building_13_part_1" d="M 355.564,125.004 L 385.788,125.004 L 385.788,170.444 L 355.564,170.444 Z"><title>13 東6号館</title></path>
  <path class="building" id="building_14_part_1" d="M 391.668,134.739 L 404.656,134.739 L 404.656,154.014 L 391.668,154.014 Z"><title>14 東7号館</title></path>
  <path class="building" id="building_14_part_2" d="M 392.688,151.578 L 399.585,151.578 L 399.585,157.463 L 392.688,157.463 Z"><title>14 東7号館</title></path>
  <path class="building" id="building_14_part_3" d="M 392.482,156.041 L 415.606,156.041 L 415.606,170.037 L 392.482,170.037 Z"><title>14 東7号館</title></path>
  <path class="building" id="building_33_part_1" d="M 281.775,163.753 L 295.387,161.98 L 305.761,191.098 Z"><title>33 東11号館</title></path>
  <path class="building" id="building_33_part_2" d="M 305.559,190.803 L 285.701,195.587 L 281.978,163.734 Z"><title>33 東11号館</title></path>
  <path class="building" id="building_26_part_1" d="M 326.045,179.412 L 339.944,174.3 L 337.006,166.302 L 323.105,171.417 L 323.51,172.517 L 322.105,173.011 L 321.198,170.541 L 313.776,173.284 L 317.319,182.886 L 324.737,180.143 L 323.945,177.993 L 325.348,177.506 L 326.045,179.412 Z"><title>26 保健管理センター</title></path>
  <path class="building" id="building_26_part_2" d="M 305.975,183.338 L 299.777,166.363 L 297.293,167.27 L 303.491,184.245 Z"><title>26 保健管理センター</title></path>
  <path class="building" id="building_11_part_1" d="M 387.009,196.206 L 401.003,196.206 L 401.003,217.612 L 387.009,217.612 Z M 410.332,191.8 L 410.332,204.376 L 407.089,204.376 L 407.089,191.8 L 387.817,191.8 L 387.817,188.754 L 400.19,188.754 L 400.19,176.382 L 381.126,176.382 L 381.126,222.225 L 407.089,222.225 L 407.089,208.633 L 410.332,208.633 L 410.332,222.225 L 423.519,222.225 L 423.519,191.8 L 410.332,191.8 Z"><title>11 東4号館</title></path>
  <path class="building" id="building_27_part_1" d="M 363.883,218.117 L 352.319,192.959 L 343.177,196.902 L 341.756,193.812 L 347.855,191.134 L 343.802,182.207 L 304.853,199.451 L 308.907,208.377 L 308.96,208.559 L 311.955,215.071 L 318.477,211.898 L 320.669,217.505 L 325.134,215.474 L 325.206,219.533 L 299.578,219.533 L 299.578,231.095 L 325.339,231.095 L 325.339,227.447 L 329.602,227.24 L 329.804,224.604 L 333.25,224.807 L 334.471,227.24 L 349.071,220.141 L 351.103,225.416 L 354.554,223.998 L 352.722,218.927 L 363.883,218.117 Z"><title>27 東3号館</title></path>
  <path class="building" id="building_27_part_2" d="M 299.154,202.595 L 290.77,205.655 L 294.32,215.374 L 302.707,212.313 L 299.154,202.595 Z"><title>27 東3号館</title></path>
  <path class="building" id="building_58_part_1" d="M 201.427,206.797 L 211.432,206.797 L 211.432,213.019 L 201.427,213.019 Z"><title>58 弓道場</title></path>
  <path class="building" id="building_51_part_1" d="M 256.775,219.329 L 256.775,222.575 L 246.024,222.575 L 246.024,219.128 L 239.533,219.128 L 239.533,212.029 L 226.145,212.029 L 226.145,217.912 L 232.637,217.912 L 232.637,221.563 L 223.1,221.563 L 223.1,229.679 L 246.024,229.679 L 246.024,227.447 L 268.542,227.447 L 268.542,219.329 L 256.775,219.329 Z"><title>51 学生寮（五思寮）</title></path>
  <path class="building" id="building_59_part_1" d="M 102.036,233.067 L 112.989,233.067 L 112.989,254.771 L 102.036,254.771 Z M 99.195,228.605 L 115.829,228.605 L 115.829,257.004 L 99.195,257.004 Z"><title>59 プール</title></path>
  <path class="building" id="building_58_part_2" d="M 201.427,235.735 L 211.432,235.735 L 211.432,241.958 L 201.427,241.958 Z"><title>58 弓道場</title></path>
  <path class="building" id="building_28_part_1" d="M 301.605,242.658 L 334.065,242.658 L 334.065,255.032 L 301.605,255.032 Z"><title>28 東2号館</title></path>
  <path class="building" id="building_9_part_1" d="M 452.933,247.73 L 441.166,247.73 L 441.166,246.311 L 435.894,246.311 L 435.894,275.319 L 441.166,275.319 L 441.166,273.494 L 452.933,273.494 L 452.933,247.73 Z"><title>9 D棟</title></path>
  <path class="building" id="building_8_part_1" d="M 416.638,249.612 L 400.638,249.612 L 400.959,270.448 L 416.576,270.448 L 416.638,249.612 Z"><title>8 C棟・新C棟</title></path>
  <path class="building" id="building_8_part_2" d="M 426.992,249.612 L 418.972,249.612 L 419.134,273.659 L 426.961,273.659 L 426.992,249.612 Z"><title>8 C棟・新C棟</title></path>
  <path class="building" id="building_62_part_1" d="M 146.127,276.537 L 146.127,255.019 L 143.756,255.019 L 143.756,252.452 L 129.416,252.452 L 129.416,276.537 L 146.127,276.537 Z"><title>62 西11号館</title></path>
  <path class="building" id="building_52_part_1" d="M 241.99,253.06 L 241.99,257.602 L 234.687,257.602 L 234.687,274.155 L 241.99,274.155 L 241.99,279.352 L 278.992,279.352 L 278.992,253.06 L 241.99,253.06 Z"><title>52 体育館</title></path>
  <path class="building" id="building_29_part_1" d="M 342.785,254.019 L 349.278,254.019 L 349.278,258.076 L 342.785,258.076 Z"><title>29 大学会館</title></path>
  <path class="building" id="building_61_part_1" d="M 171.847,259.364 L 171.847,255.303 L 157.378,255.303 L 157.378,259.364 L 151.563,259.364 L 151.563,271.262 L 184.157,271.262 L 184.157,259.364 L 171.847,259.364 Z"><title>61 西7号館</title></path>
  <path class="building" id="building_29_part_2" d="M 363.48,261.93 L 361.856,261.93 L 361.856,256.454 L 337.307,256.454 L 337.307,280.595 L 343.272,280.595 L 343.272,284.044 L 362.341,284.044 L 362.341,281.199 L 363.48,281.199 L 363.48,261.93 Z"><title>29 大学会館</title></path>
  <path class="building" id="building_60_part_1" d="M 190.508,257.063 L 210.526,257.063 L 210.526,270.448 L 190.508,270.448 Z"><title>60 西6号館</title></path>
  <path class="building" id="building_31_part_1" d="M 296.94,270.248 L 302.215,270.248 L 302.215,259.092 L 291.463,259.092 L 291.463,286.274 L 296.94,286.274 L 296.94,270.248 Z"><title>31 東37号館</title></path>
  <path class="building" id="building_30_part_1" d="M 306.072,266.396 L 326.558,266.396 L 326.558,276.537 L 306.072,276.537 Z"><title>30 東36号館</title></path>
  <path class="building" id="building_62_part_2" d="M 130.291,273.659 L 143.247,273.659 L 143.247,279.29 L 130.291,279.29 Z"><title>62 西11号館</title></path>
  <path class="building" id="building_7_part_1" d="M 425.546,277.145 L 388.831,277.145 L 388.831,282.621 L 391.672,282.621 L 391.672,287.086 L 396.338,287.086 L 396.338,289.312 L 400.597,289.312 L 400.597,290.532 L 407.899,290.532 L 407.899,289.312 L 421.694,289.312 L 421.694,285.461 L 425.347,285.461 L 425.347,282.621 L 425.546,282.621 L 425.546,277.145 Z"><title>7 東1号館</title></path>
  <path class="building" id="building_53_part_1" d="M 257.587,283.436 L 278.683,283.436 L 278.683,296.955 L 257.587,296.955 Z"><title>53 第2体育館</title></path>
  <path class="building" id="building_6_part_1" d="M 457.194,287.489 L 457.194,289.517 L 455.566,289.517 L 455.566,287.489 L 453.134,285.255 L 450.905,286.88 L 450.905,293.371 L 438.938,293.371 L 438.938,303.513 L 433.258,303.513 L 431.227,305.544 L 433.258,308.382 L 434.882,308.382 L 434.882,310.205 L 433.461,310.205 L 433.461,314.468 L 438.731,314.468 L 438.731,308.584 L 441.574,308.584 L 441.574,316.7 L 443.604,316.7 L 443.604,318.525 L 454.554,318.525 L 454.554,316.906 L 462.469,316.906 L 462.469,308.584 L 464.901,308.584 L 464.901,300.068 L 461.656,296.212 L 455.566,296.212 L 455.566,293.371 L 464.499,293.371 L 464.499,287.086 L 456.811,287.086 Z"><title>6 B棟</title></path>
  <path class="building" id="building_5_part_1" d="M 391.471,296.212 L 424.129,296.212 L 424.129,305.139 L 391.471,305.139 Z"><title>5 A棟</title></path>
  <path class="building" id="building_54_part_1" d="M 242.172,297.498 L 228.377,297.498 L 228.377,316.567 L 242.172,316.567 L 242.172,308.521 L 254.077,308.521 C 254.077,308.499 254.072,308.473 254.072,308.452 L 254.072,306.291 C 254.072,305.215 254.907,304.34 255.966,304.27 L 255.966,297.498 L 242.172,297.498 Z"><title>54 西5号館</title></path>
  <path class="building" id="building_64_part_1" d="M 129.655,298.038 L 151.425,298.038 L 151.425,310.208 L 129.655,310.208 Z"><title>64 西4号館</title></path>
  <path class="building" id="building_63_part_1" d="M 156.296,298.038 L 210.795,298.038 L 210.795,310.208 L 156.296,310.208 Z"><title>63 西2号館</title></path>
  <path class="building" id="building_56_part_1" d="M 260.225,309.4 L 260.225,340.435 L 253.734,340.435 L 253.734,358.895 L 276.251,358.895 L 276.251,309.4 L 260.225,309.4 Z"><title>56 西10号館</title></path>
  <path class="building" id="building_55_part_1" d="M 244.604,315.615 L 244.604,321.701 L 232.637,321.701 C 232.001,321.701 231.488,322.222 231.488,322.856 L 231.488,331.779 C 231.488,332.409 232.001,332.931 232.637,332.931 L 244.604,332.931 L 244.604,333.067 L 254.613,333.067 L 254.613,315.615 L 244.604,315.615 Z"><title>55 西食堂</title></path>
  <path class="building" id="building_1_part_1" d="M 418.246,316.089 L 418.246,322.584 L 409.121,322.584 L 409.121,329.275 L 426.973,329.275 L 426.973,316.089 L 418.246,316.089 Z"><title>1 本館</title></path>
  <path class="building" id="building_69_part_1" d="M 108.961,322.517 L 112.884,322.517 L 112.884,326.168 L 108.961,326.168 Z"><title>69 西門守衛所</title></path>
  <path class="building" id="building_1_part_2" d="M 394.517,322.584 L 403.846,322.584 L 403.846,329.275 L 394.517,329.275 Z"><title>1 本館</title></path>
  <path class="building" id="building_75_part_1" d="M 462.737,323.464 L 469.5,323.464 L 469.5,340.638 L 462.737,340.638 Z"><title>75 番号のみ（PDF内の名称未記載）</title></path>
  <path class="building" id="building_1_part_3" d="M 447.053,335.36 L 447.053,325.22 L 429.808,325.22 L 429.808,341.043 L 394.515,341.043 L 394.515,352.201 L 439.14,352.201 L 439.14,341.043 L 436.1,341.043 L 436.1,335.36 L 447.053,335.36 Z"><title>1 本館</title></path>
  <path class="building" id="building_66_part_1" d="M 145.341,339.422 L 127.896,339.422 L 127.896,354.294 L 145.341,354.294 L 145.341,351.727 L 159.134,351.727 L 159.134,339.422 L 145.341,339.422 Z"><title>66 西3号館</title></path>
  <path class="building" id="building_65_part_1" d="M 167.248,339.422 L 200.788,339.422 L 200.788,351.861 L 167.248,351.861 Z"><title>65 西1号館</title></path>
  <path class="building" id="building_57_part_1" d="M 244.875,346.183 L 224.319,346.183 L 224.319,349.288 L 216.071,349.288 L 216.071,359.431 L 229.592,359.431 L 229.592,356.321 L 244.875,356.321 L 244.875,346.183 Z"><title>57 西31号館</title></path>
  <path class="building" id="building_68_part_1" d="M 140.878,379.452 L 140.878,358.216 L 123.569,358.216 L 123.569,368.225 L 129.112,368.225 L 129.112,379.452 L 120.053,379.452 L 120.053,391.889 L 152.511,391.889 L 152.511,379.452 L 140.878,379.452 Z"><title>68 西9号館</title></path>
  <path class="building" id="building_67_part_1" d="M 161.976,360.784 L 173.468,360.784 L 173.468,363.762 L 161.976,363.762 Z"><title>67 西8号館</title></path>
  <path class="building" id="building_67_part_2" d="M 185.776,360.784 L 197.271,360.784 L 197.271,363.762 L 185.776,363.762 Z"><title>67 西8号館</title></path>
  <path class="building" id="building_67_part_3" d="M 196.818,363.762 L 185.325,363.762 L 185.325,369.576 L 173.016,369.576 L 173.016,363.762 L 161.522,363.762 L 161.522,375.66 L 170.176,375.66 L 170.176,379.45 L 156.25,379.45 L 156.25,391.213 L 191.14,391.213 L 191.14,379.858 L 196.818,379.858 L 196.818,363.762 Z"><title>67 西8号館</title></path>
  <path class="building" id="building_3_part_1" d="M 476.798,376.882 L 475.721,376.882 L 475.721,373.091 L 474.503,373.091 L 474.503,367.275 L 467.741,367.275 L 467.741,373.091 L 455.165,373.091 L 455.165,369.172 L 448.539,369.172 L 448.539,373.091 L 442.316,373.091 L 442.316,382.285 L 439.748,382.285 L 439.748,389.595 L 442.181,389.595 L 442.181,397.841 L 448.674,397.841 L 448.674,401.224 L 455.441,401.224 L 455.441,397.841 L 475.721,397.841 L 475.721,396.354 L 476.798,396.354 L 476.798,376.882 Z"><title>3 講堂</title></path>
  <path class="building" id="building_2_part_1" d="M 396.947,397.641 L 390.458,397.641 L 390.458,392.571 L 387.414,392.571 L 387.414,397.641 L 369.36,397.641 L 369.36,409.809 L 387.008,409.809 L 387.008,406.157 L 396.947,406.157 L 396.947,397.641 Z"><title>2 正門守衛所</title></path>
  <path class="building" id="building_2_part_2" d="M 401.884,399.364 L 405.806,399.364 L 405.806,403.016 L 401.884,403.016 Z"><title>2 正門守衛所</title></path>
  <path class="building" id="building_70_part_1" d="M 172.34,432.213 L 172.34,424.863 L 131.821,424.863 L 131.821,440.732 L 171.559,440.732 L 172.34,440.732 L 174.803,440.732 L 174.803,432.213 L 172.34,432.213 Z"><title>70 アライアンスセンター</title></path>
  <path class="building" id="building_73_part_1" d="M 115.84,460.621 L 115.823,457.445 L 119.969,457.445 L 119.969,429.112 L 107.174,429.112 L 107.174,457.473 L 107.174,459.939 L 107.174,460.802 L 107.174,464.008 L 107.174,470.482 L 119.969,470.482 L 119.969,464.079 L 111.888,464.063 L 111.982,460.65 L 115.84,460.621 Z"><title>73 ドーム友達（学生宿舎）</title></path>
  <path class="building" id="building_72_part_1" d="M 193.962,450.732 L 193.962,449.232 L 193.836,449.232 L 193.836,448.107 L 198.252,448.107 L 198.252,430.482 L 186.629,430.482 L 186.629,448.107 L 188.192,448.107 L 188.192,450.357 L 190.92,450.357 L 190.92,450.732 L 190.723,450.732 L 190.723,454.982 L 186.629,454.982 L 186.629,469.857 L 198.252,469.857 L 198.252,455.224 L 198.396,455.224 L 198.396,450.732 L 193.962,450.732 Z"><title>72 ドーム絆（学生宿舎）</title></path>
  <path class="building" id="building_71_part_1" d="M 176.587,466.39 L 176.603,462.39 L 166.966,462.39 L 166.95,466.326 L 139.319,466.249 L 139.319,463.721 L 133.771,463.721 L 133.771,466.249 L 130.475,466.249 L 130.475,476.054 L 179.89,476.107 L 179.965,466.278 L 176.587,466.39 Z"><title>71 職員宿舎（UECポートロッジ）</title></path>
</g>
<g id="labels">
  <text class="label" x="348.413" y="34.197" font-size="6.51">32</text>
  <text class="label" x="357.543" y="34.621" font-size="7.612">保育施設「UEC保育園どんぐり」</text>
  <text class="label" x="357.647" y="43.823" font-size="6.51">20</text>
  <text class="label" x="366.778" y="44.247" font-size="7.612">職員研修所</text>
  <text class="label" x="310.155" y="46.024" font-size="6.51">21</text>
  <text class="label" x="345.215" y="55.813" font-size="7.612">東31号館</text>
  <text class="label" x="286.546" y="56" font-size="7.612">国際交流会館</text>
  <text class="label" x="335.106" y="56" font-size="6.51">18</text>
  <text class="label" x="357.955" y="64.454" font-size="6.51">19</text>
  <text class="label" x="367.437" y="65.163" font-size="7.612">東32号館</text>
  <text class="label" x="300.013" y="76.464" font-size="7.612">課外活動施設</text>
  <text class="label" x="290.628" y="76.652" font-size="6.51">22</text>
  <text class="label" x="355.316" y="84.114" font-size="7.612">東10号館</text>
  <text class="label" x="346.007" y="84.3" font-size="6.51">17</text>
  <text class="label" x="271.38" y="97.876" font-size="6.51">23</text>
  <text class="label" x="280.295" y="97.949" font-size="7.612">東33号館</text>
  <text class="label" x="373.316" y="102.687" font-size="7.612">東9号館</text>
  <text class="label" x="363.64" y="102.875" font-size="6.51">16</text>
  <text class="label" x="305.551" y="105.614" font-size="7.612">東34号館</text>
  <text class="label" x="296.392" y="105.799" font-size="6.51">24</text>
  <text class="label" x="383.585" y="116.184" font-size="6.51">15</text>
  <text class="label" x="392.241" y="117.245" font-size="7.612">東8号館</text>
  <text class="label" x="299.872" y="131.124" font-size="7.612">東35号館</text>
  <text class="label" x="290.207" y="131.31" font-size="6.51">25</text>
  <text class="label" x="163.07" y="138.734" font-size="32.297">西</text>
  <text class="label" x="468.232" y="145.667" font-size="32.297">東</text>
  <text class="label" x="375.915" y="147.682" font-size="7.612">東6号館</text>
  <text class="label" x="366.869" y="147.869" font-size="6.51">13</text>
  <text class="label" x="163.087" y="160.285" font-size="13.457">地区</text>
  <text class="label" x="408.592" y="161.904" font-size="7.612">東7号館</text>
  <text class="label" x="398.951" y="162.089" font-size="6.51">14</text>
  <text class="label" x="468.242" y="167.205" font-size="13.457">地区</text>
  <text class="label" x="287.122" y="172.275" font-size="7">33</text>
  <text class="label" x="319.036" y="175.531" font-size="7.612">保健管理センター</text>
  <text class="label" x="309.607" y="175.718" font-size="6.51">26</text>
  <text class="label" x="273.878" y="183.591" font-size="7.612">東11号館</text>
  <text class="label" x="383.585" y="184.643" font-size="6.51">12</text>
  <text class="label" x="392.996" y="185.352" font-size="7.612">東5号館</text>
  <text class="label" x="329.564" y="199.367" font-size="6.51">27</text>
  <text class="label" x="319.254" y="209.73" font-size="7.612">東3号館</text>
  <text class="label" x="400.47" y="209.765" font-size="7.612">東4号館</text>
  <text class="label" x="390" y="209.952" font-size="6.51">11</text>
  <text class="label" x="236.016" y="224.425" font-size="6.51">51</text>
  <text class="label" x="247.249" y="224.448" font-size="7.612">学生寮</text>
  <text class="label" x="239.636" y="233.583" font-size="7.612">（五思寮）</text>
  <text class="label" x="389.277" y="235.681" font-size="6.51">10</text>
  <text class="label" x="398.818" y="236.61" font-size="7.612">コミュニケーションパーク</text>
  <text class="label" x="211.703" y="238.403" font-size="7.612">弓道場</text>
  <text class="label" x="202.57" y="238.631" font-size="6.51">58</text>
  <text class="label" x="103.553" y="242.387" font-size="6.51">59</text>
  <text class="label" x="111.868" y="242.658" font-size="7.612">プール</text>
  <text class="label" x="348.93" y="248.251" font-size="6.51">10</text>
  <text class="label" x="270.9" y="248.489" font-size="10">中門</text>
  <text class="label" x="311.664" y="251.025" font-size="7.612">東2号館</text>
  <text class="label" x="303.165" y="251.045" font-size="6.51">28</text>
  <text class="label" x="410.009" y="254.358" font-size="6.51">8</text>
  <text class="label" x="386.225" y="255.521" font-size="6.51">10</text>
  <text class="label" x="443.107" y="259.056" font-size="6.51">9</text>
  <text class="label" x="450.619" y="259.764" font-size="7.612">D棟</text>
  <text class="label" x="301.572" y="263.893" font-size="7.612">東37号館</text>
  <text class="label" x="346.903" y="264.319" font-size="6.51">29</text>
  <text class="label" x="355.657" y="265.027" font-size="7.612">大学会館</text>
  <text class="label" x="395.74" y="265.287" font-size="7.612">C棟・新C棟</text>
  <text class="label" x="197.177" y="265.305" font-size="6.51">60</text>
  <text class="label" x="206.561" y="265.633" font-size="7.612">西6号館</text>
  <text class="label" x="155.512" y="265.955" font-size="6.51">61</text>
  <text class="label" x="293.116" y="266.049" font-size="6.51">31</text>
  <text class="label" x="165.342" y="266.397" font-size="7.612">西7号館</text>
  <text class="label" x="246.491" y="269.152" font-size="6.51">52</text>
  <text class="label" x="256.071" y="269.86" font-size="7.612">体育館</text>
  <text class="label" x="308.216" y="273.877" font-size="6.51">30</text>
  <text class="label" x="317.235" y="274.608" font-size="7.612">東36号館</text>
  <text class="label" x="133.147" y="274.907" font-size="6.51">62</text>
  <text class="label" x="142.579" y="276.049" font-size="7.612">西11号館</text>
  <text class="label" x="404.703" y="284.009" font-size="6.51">7</text>
  <text class="label" x="412.611" y="284.032" font-size="7.612">東1号館</text>
  <text class="label" x="260.037" y="287.983" font-size="6.51">53</text>
  <text class="label" x="269.295" y="288.454" font-size="7.612">第2体育館</text>
  <text class="label" x="398.92" y="302.886" font-size="6.51">5</text>
  <text class="label" x="406.651" y="303.815" font-size="7.612">A棟</text>
  <text class="label" x="243.656" y="305.987" font-size="7.612">西5号館</text>
  <text class="label" x="233.628" y="306.174" font-size="6.51">54</text>
  <text class="label" x="172.679" y="306.321" font-size="6.51">63</text>
  <text class="label" x="140.686" y="306.662" font-size="7.612">西4号館</text>
  <text class="label" x="131.548" y="306.85" font-size="6.51">64</text>
  <text class="label" x="182.557" y="307.099" font-size="7.612">西2号館</text>
  <text class="label" x="442.329" y="307.339" font-size="6.51">6</text>
  <text class="label" x="450.059" y="308.268" font-size="7.612">B棟</text>
  <text class="label" x="107.134" y="319.924" font-size="6.51">69</text>
  <text class="label" x="114.374" y="319.924" font-size="7.63"> 西門守衛所</text>
  <text class="label" x="232.774" y="329.163" font-size="6.51">55</text>
  <text class="label" x="241.419" y="329.275" font-size="7.612">西食堂</text>
  <text class="label" x="462.903" y="334.274" font-size="7">75</text>
  <text class="label" x="69.139" y="335.578" font-size="12.56">西門</text>
  <text class="label" x="265.025" y="339.061" font-size="6.51">56</text>
  <text class="label" x="274.7" y="339.086" font-size="7.612">西10号館</text>
  <text class="label" x="482.306" y="345.517" font-size="10">東門</text>
  <text class="label" x="482.304" y="347.514" font-size="12.56">東門</text>
  <text class="label" x="140.995" y="347.517" font-size="7.612">西3号館</text>
  <text class="label" x="173.657" y="347.597" font-size="6.51">65</text>
  <text class="label" x="131.356" y="347.705" font-size="6.51">66</text>
  <text class="label" x="182.856" y="347.725" font-size="7.612">西1号館</text>
  <text class="label" x="403.446" y="349.115" font-size="6.51">1</text>
  <text class="label" x="411.176" y="350.044" font-size="7.612">本館</text>
  <text class="label" x="224.753" y="354.022" font-size="6.51">57</text>
  <text class="label" x="234.565" y="354.294" font-size="7.612">西31号館</text>
  <text class="label" x="131.632" y="377.413" font-size="6.51">68</text>
  <text class="label" x="172.912" y="377.413" font-size="6.51">67</text>
  <text class="label" x="140.995" y="377.488" font-size="7.612">西9号館</text>
  <text class="label" x="182.392" y="377.488" font-size="7.612">西8号館</text>
  <text class="label" x="450.599" y="384.451" font-size="6.51">3</text>
  <text class="label" x="458.273" y="385.159" font-size="7.612">講堂</text>
  <text class="label" x="402.034" y="396.56" font-size="6.51">2</text>
  <text class="label" x="405.653" y="396.56" font-size="7.63"> 正門守衛所</text>
  <text class="label" x="303.582" y="397.156" font-size="7.612">創立80周年記念会館</text>
  <text class="label" x="19.359" y="402.04" font-size="10.766">至八王子</text>
  <text class="label" x="19.359" y="402.04" font-size="10.766">至調布IC</text>
  <text class="label" x="377.214" y="405.215" font-size="6.51">4</text>
  <text class="label" x="321.242" y="406.291" font-size="7.612">「リサージュ」</text>
  <text class="label" x="521.966" y="420.257" font-size="10.766">至新宿</text>
  <text class="label" x="468.232" y="420.603" font-size="10">南門</text>
  <text class="label" x="397.153" y="424.778" font-size="12.56">正門</text>
  <text class="label" x="397.148" y="424.783" font-size="12.56">正門</text>
  <text class="label" x="144.044" y="435.274" font-size="7">アライアンスセンター</text>
  <text class="label" x="133.694" y="435.332" font-size="7">70</text>
  <text class="label" x="141.128" y="435.332" font-size="7"> アライアンスセンター</text>
  <text class="label" x="109.314" y="438.944" font-size="7">73</text>
  <text class="label" x="108.434" y="449.2" font-size="7">ドーム友達（学生宿舎）</text>
  <text class="label" x="189.329" y="452.546" font-size="7">72</text>
  <text class="label" x="463.433" y="453.415" font-size="10.766">至調布駅</text>
  <text class="label" x="150.303" y="459.021" font-size="7">74</text>
  <text class="label" x="189.242" y="462.728" font-size="7">ドーム絆（学生宿舎）</text>
  <text class="label" x="132.293" y="472.953" font-size="7">71</text>
  <text class="label" x="142.14" y="473.953" font-size="7">職員宿舎</text>
  <text class="label" x="138.479" y="482.955" font-size="7">（UECポートロッジ）</text>
</g>
</svg>